<svg xmlns="http://www.w3.org/2000/svg" width="12" height="10.5" viewBox="0 0 12 10.5">
  <path id="Icon_awesome-archive" data-name="Icon awesome-archive" d="M.75,12a.749.749,0,0,0,.75.75h9a.749.749,0,0,0,.75-.75V5.25H.75ZM4.5,7.031a.282.282,0,0,1,.281-.281H7.219a.282.282,0,0,1,.281.281v.187a.282.282,0,0,1-.281.281H4.781A.282.282,0,0,1,4.5,7.219ZM11.25,2.25H.75A.749.749,0,0,0,0,3V4.125A.376.376,0,0,0,.375,4.5h11.25A.376.376,0,0,0,12,4.125V3A.749.749,0,0,0,11.25,2.25Z" transform="translate(0 -2.25)"/>
</svg>
