<svg xmlns="http://www.w3.org/2000/svg" width="15.7" height="11.775" viewBox="0 0 15.7 11.775">
  <path id="Icon_awesome-chart-line" data-name="Icon awesome-chart-line" d="M15.209,14.312H1.962V4.991A.49.49,0,0,0,1.472,4.5H.491A.49.49,0,0,0,0,4.991v10.3a.981.981,0,0,0,.981.981H15.209a.49.49,0,0,0,.491-.491V14.8A.49.49,0,0,0,15.209,14.312Zm-.981-8.831h-3.62a.736.736,0,0,0-.52,1.256l.994.994-2.25,2.25-2.25-2.25a.981.981,0,0,0-1.388,0L3.088,9.838a.491.491,0,0,0,0,.694l.694.694a.491.491,0,0,0,.694,0L5.887,9.813l2.25,2.25a.981.981,0,0,0,1.388,0l2.944-2.944.994.994a.736.736,0,0,0,1.256-.52V5.972A.49.49,0,0,0,14.228,5.481Z" transform="translate(0 -4.5)"/>
</svg>
