<svg xmlns="http://www.w3.org/2000/svg" width="14.364" height="17.026" viewBox="0 0 14.364 17.026">
  <g id="businessman" transform="translate(-37.758 0)">
    <g id="Group_153" data-name="Group 153" transform="translate(37.758 0)">
      <path id="Path_105" data-name="Path 105" d="M134.519,7.219a3.6,3.6,0,0,0,2.214,2.743,2.426,2.426,0,0,0,1.625,0,3.668,3.668,0,0,0,2.221-2.739c.169-.014.391-.25.631-1.1.328-1.16-.021-1.333-.317-1.3a3.073,3.073,0,0,0,.127-.476c.5-3.007-.98-3.109-.98-3.109A2.284,2.284,0,0,0,139.147.4a3.012,3.012,0,0,0-1.83-.388,2.732,2.732,0,0,0-.73.137h0a3.206,3.206,0,0,0-.8.412,4.213,4.213,0,0,0-.825.684,3.348,3.348,0,0,0-.892,1.565,3.4,3.4,0,0,0,.007,1.53h0a2.973,2.973,0,0,0,.127.476c-.3-.028-.645.145-.317,1.3C134.127,6.969,134.349,7.2,134.519,7.219Z" transform="translate(-130.368 0)"/>
      <path id="Path_106" data-name="Path 106" d="M50.754,275.962a11.181,11.181,0,0,1-3.264-1.488l-1.142,3.613-.215.68,0-.011-.187.578-.6-1.71c1.481-2.066-.3-2.045-.4-2.041s-1.879-.025-.4,2.041l-.6,1.71-.187-.578,0,.011-.215-.68-1.146-3.613a11.181,11.181,0,0,1-3.264,1.488c-1.343.342-1.407,1.893-1.354,2.658,0,0,.078,1.04.155,1.5a13.778,13.778,0,0,0,7.015,1.706,13.736,13.736,0,0,0,7.015-1.706c.078-.458.155-1.5.155-1.5C52.16,277.855,52.1,276.3,50.754,275.962Z" transform="translate(-37.758 -264.798)"/>
    </g>
  </g>
</svg>
