<svg xmlns="http://www.w3.org/2000/svg" width="14.997" height="15.003" viewBox="0 0 14.997 15.003">
  <g id="KjWP9R.tif" transform="translate(-44.152 -21.874)">
    <g id="Group_255" data-name="Group 255" transform="translate(44.152 21.874)">
      <path id="Path_141" data-name="Path 141" d="M52.1,21.874c0,.581,0,1.163,0,1.744a.158.158,0,0,0,.11.174,1.223,1.223,0,0,1,.64.636.166.166,0,0,0,.185.115q2.528,0,5.057,0h.186v.877h-1.1c.131.322.253.624.377.924.5,1.222,1,2.447,1.513,3.665a1.079,1.079,0,0,1,.052.683,2.167,2.167,0,0,1-2.009,1.754,8.723,8.723,0,0,1-1.331-.019,2.176,2.176,0,0,1-1.866-1.82A1.109,1.109,0,0,1,53.989,30c.607-1.469,1.206-2.942,1.808-4.413l.063-.161H55.4c-.792,0-1.583,0-2.375,0a.166.166,0,0,0-.183.116,1.243,1.243,0,0,1-.654.642.13.13,0,0,0-.095.139q0,3.063,0,6.127c0,.019,0,.038.006.055a2.237,2.237,0,0,1,1.691,1.708H49.5A2.238,2.238,0,0,1,51.217,32.5v-.145q0-2.991,0-5.981a.2.2,0,0,0-.136-.217,1.266,1.266,0,0,1-.632-.645.171.171,0,0,0-.121-.087c-.938-.005-1.876,0-2.814,0a.535.535,0,0,0-.069.01c.126.31.249.612.373.913.5,1.218.994,2.438,1.506,3.652a1.1,1.1,0,0,1,.057.7,2.165,2.165,0,0,1-2,1.75,7.7,7.7,0,0,1-1.317-.016A2.152,2.152,0,0,1,44.18,30.6a.463.463,0,0,0-.028-.08v-.293a.742.742,0,0,0,.042-.075q.947-2.314,1.894-4.63a1.024,1.024,0,0,0,.03-.108H45.043v-.874h.187q2.507,0,5.013,0a.215.215,0,0,0,.24-.145,1.189,1.189,0,0,1,.628-.608.157.157,0,0,0,.109-.174c0-.581,0-1.163,0-1.744Zm-5.306,4.252L45.255,29.81h3.07ZM58.06,29.814l-1.537-3.688-1.536,3.688Z" transform="translate(-44.152 -21.874)"/>
      <path id="Path_142" data-name="Path 142" d="M56.824,41.394h-7.9a1.6,1.6,0,0,1,.406-1.422,1.363,1.363,0,0,1,.962-.361l5.156,0a1.733,1.733,0,0,1,.291.025A1.3,1.3,0,0,1,56.823,40.9C56.827,41.064,56.824,41.225,56.824,41.394Z" transform="translate(-45.362 -26.39)"/>
    </g>
  </g>
</svg>
