<svg xmlns="http://www.w3.org/2000/svg" width="18.182" height="18.972" viewBox="0 0 18.182 18.972">
  <g id="Group_252" data-name="Group 252" transform="translate(-30.201 -24.11)">
    <path id="Path_128" data-name="Path 128" d="M46.576,43.042V29.774H44.269V43.042H42.455V33.5H40.148v9.537H38.334V39.551H36.027v3.491H34.214V36.7H31.906v6.341H30.2v1.245H48.383V43.042Z" transform="translate(0 -1.206)"/>
    <path id="Path_129" data-name="Path 129" d="M33.735,33.106a1.391,1.391,0,0,0,.866-.3l.748.543a1.357,1.357,0,0,0-.173.661,1.425,1.425,0,1,0,2.849,0,1.4,1.4,0,0,0-.535-1.1l2-2.952a.884.884,0,0,0,.252.031,1.424,1.424,0,0,0,1.425-1.425,1.449,1.449,0,0,0-.039-.323l2.668-1.826a1.387,1.387,0,0,0,1.11.543,1.425,1.425,0,1,0-1.425-1.425.368.368,0,0,0,.016.134l-2.747,1.889a1.425,1.425,0,0,0-2.432,1.007,1.392,1.392,0,0,0,.48,1.055L36.749,32.6a.484.484,0,0,0-.15-.016,1.37,1.37,0,0,0-.708.2l-.826-.606a1.323,1.323,0,0,0,.094-.5,1.425,1.425,0,1,0-1.425,1.425Zm11.806-7.572a.635.635,0,0,1-.638.638.607.607,0,0,1-.457-.2.588.588,0,0,1-.181-.433.626.626,0,0,1,.464-.606A.424.424,0,0,1,44.9,24.9.635.635,0,0,1,45.541,25.535ZM39.1,28.565a.645.645,0,0,1,.638-.638.574.574,0,0,1,.323.094.632.632,0,0,1,.315.543.683.683,0,0,1-.039.22.6.6,0,0,1-.268.323.582.582,0,0,1-.331.094.623.623,0,0,1-.5-.244A.633.633,0,0,1,39.1,28.565Zm-2.054,5a.636.636,0,1,1-1.086.449.462.462,0,0,1,.031-.181.635.635,0,0,1,.606-.457A.618.618,0,0,1,37.048,33.563Zm-3.314-2.519a.647.647,0,0,1,.638.622v.016a.642.642,0,0,1-.472.614.6.6,0,0,1-.165.024.638.638,0,0,1,0-1.275Z" transform="translate(-0.449)"/>
  </g>
</svg>
