<svg xmlns="http://www.w3.org/2000/svg" width="11.42" height="13.052" viewBox="0 0 11.42 13.052">
  <path id="Icon_awesome-bell" data-name="Icon awesome-bell" d="M5.71,13.052A1.631,1.631,0,0,0,7.341,11.42H4.079A1.631,1.631,0,0,0,5.71,13.052ZM11.2,9.235C10.708,8.706,9.787,7.91,9.787,5.3A4.026,4.026,0,0,0,6.525,1.347V.816a.815.815,0,1,0-1.63,0v.531A4.026,4.026,0,0,0,1.633,5.3c0,2.608-.922,3.4-1.414,3.933A.8.8,0,0,0,0,9.789a.816.816,0,0,0,.818.816H10.6a.816.816,0,0,0,.818-.816.8.8,0,0,0-.219-.553Z" fill="#f4f4f4"/>
</svg>
