<svg xmlns="http://www.w3.org/2000/svg" width="12.75" height="14.572" viewBox="0 0 12.75 14.572">
  <path id="Icon_awesome-calendar-alt" data-name="Icon awesome-calendar-alt" d="M0,13.206a1.366,1.366,0,0,0,1.366,1.366H11.384a1.366,1.366,0,0,0,1.366-1.366V5.464H0ZM9.107,7.627a.343.343,0,0,1,.342-.342h1.138a.343.343,0,0,1,.342.342V8.766a.343.343,0,0,1-.342.342H9.449a.343.343,0,0,1-.342-.342Zm0,3.643a.343.343,0,0,1,.342-.342h1.138a.343.343,0,0,1,.342.342v1.138a.343.343,0,0,1-.342.342H9.449a.343.343,0,0,1-.342-.342ZM5.464,7.627a.343.343,0,0,1,.342-.342H6.944a.343.343,0,0,1,.342.342V8.766a.343.343,0,0,1-.342.342H5.806a.343.343,0,0,1-.342-.342Zm0,3.643a.343.343,0,0,1,.342-.342H6.944a.343.343,0,0,1,.342.342v1.138a.343.343,0,0,1-.342.342H5.806a.343.343,0,0,1-.342-.342ZM1.821,7.627a.343.343,0,0,1,.342-.342H3.3a.343.343,0,0,1,.342.342V8.766a.343.343,0,0,1-.342.342H2.163a.343.343,0,0,1-.342-.342Zm0,3.643a.343.343,0,0,1,.342-.342H3.3a.343.343,0,0,1,.342.342v1.138a.343.343,0,0,1-.342.342H2.163a.343.343,0,0,1-.342-.342Zm9.563-9.449H10.018V.455A.457.457,0,0,0,9.563,0H8.652A.457.457,0,0,0,8.2.455V1.821H4.554V.455A.457.457,0,0,0,4.1,0H3.188a.457.457,0,0,0-.455.455V1.821H1.366A1.366,1.366,0,0,0,0,3.188V4.554H12.75V3.188A1.366,1.366,0,0,0,11.384,1.821Z" fill="#fff"/>
</svg>
