<svg xmlns="http://www.w3.org/2000/svg" width="15.364" height="13.444" viewBox="0 0 15.364 13.444">
  <path id="Icon_awesome-camera" data-name="Icon awesome-camera" d="M15.364,5.611v8.642a1.441,1.441,0,0,1-1.44,1.44H1.44A1.441,1.441,0,0,1,0,14.253V5.611a1.441,1.441,0,0,1,1.44-1.44H4.081l.369-.987A1.438,1.438,0,0,1,5.8,2.25H9.564a1.438,1.438,0,0,1,1.347.933l.372.987h2.641A1.441,1.441,0,0,1,15.364,5.611ZM11.283,9.932a3.6,3.6,0,1,0-3.6,3.6A3.6,3.6,0,0,0,11.283,9.932Zm-.96,0A2.641,2.641,0,1,1,7.682,7.291,2.645,2.645,0,0,1,10.323,9.932Z" transform="translate(0 -2.25)"/>
</svg>
