<svg xmlns="http://www.w3.org/2000/svg" width="14.103" height="14.105" viewBox="0 0 14.103 14.105">
  <g id="Icon_ionic-ios-chatboxes" data-name="Icon ionic-ios-chatboxes" transform="translate(-3.375 -3.375)">
    <path id="Path_109" data-name="Path 109" d="M20.492,11.981H12.978a1.294,1.294,0,0,0-1.292,1.292v5.232a1.291,1.291,0,0,0,1.292,1.289h4.3a.371.371,0,0,1,.258.109l2.136,1.97c.119.115.315.068.315-.1V20.058c0-.2.129-.268.332-.268h.034A1.411,1.411,0,0,0,21.781,18.5V13.273A1.287,1.287,0,0,0,20.492,11.981Z" transform="translate(-4.303 -4.456)" fill="#fff"/>
    <path id="Path_110" data-name="Path 110" d="M7.661,6.695h6.016V4.48a1.106,1.106,0,0,0-1.105-1.105H4.48A1.106,1.106,0,0,0,3.375,4.48v5.6A1.106,1.106,0,0,0,4.48,11.188H6.552V7.8A1.111,1.111,0,0,1,7.661,6.695Z" transform="translate(0 0)" fill="#fff"/>
  </g>
</svg>
