<svg xmlns="http://www.w3.org/2000/svg" width="24.068" height="14.824" viewBox="0 0 24.068 14.824">
  <path id="Path_107" data-name="Path 107" d="M353.789,189.5H352.16v-9.164a.682.682,0,0,0-.683-.682H348.62a.682.682,0,0,0-.683.682V189.5h-1.059V176.513a1.073,1.073,0,0,0-1.073-1.074h-8a1.073,1.073,0,0,0-1.072,1.074V189.5h-.987v-9.164a.682.682,0,0,0-.683-.682h-2.858a.682.682,0,0,0-.683.682V189.5h-1.8v.765h24.068Zm-20.855-8.5h1.4v1.4h-1.4Zm0,2.562h1.4v1.4h-1.4Zm0,2.562h1.4v1.4h-1.4Zm10.751-9.091h1.4v1.4h-1.4Zm0,2.625h1.4v1.4h-1.4Zm0,2.625h1.4v1.4h-1.4Zm-2.581-5.249h1.4v1.4h-1.4Zm0,2.625h1.4v1.4h-1.4Zm0,2.625h1.4v1.4h-1.4Zm-2.576-5.249h1.4v1.4h-1.4Zm0,2.625h1.4v1.4h-1.4Zm0,2.625h1.4v1.4h-1.4Zm1.714,7.221v-2.039a1.565,1.565,0,1,1,3.13,0V189.5Zm9.107-8.5h1.4v1.4h-1.4Zm0,2.562h1.4v1.4h-1.4Zm0,2.562h1.4v1.4h-1.4Z" transform="translate(-329.721 -175.439)" fill="#515151"/>
</svg>
