<svg xmlns="http://www.w3.org/2000/svg" width="13.32" height="14.8" viewBox="0 0 13.32 14.8">
  <path id="Icon_material-perm-contact-calendar" data-name="Icon material-perm-contact-calendar" d="M16.34,2.98H15.6V1.5H14.12V2.98H8.2V1.5H6.72V2.98H5.98A1.48,1.48,0,0,0,4.5,4.46V14.82A1.48,1.48,0,0,0,5.98,16.3H16.34a1.484,1.484,0,0,0,1.48-1.48V4.46A1.484,1.484,0,0,0,16.34,2.98ZM11.16,5.2A2.22,2.22,0,1,1,8.94,7.42,2.217,2.217,0,0,1,11.16,5.2Zm4.44,8.88H6.72v-.74c0-1.48,2.96-2.294,4.44-2.294s4.44.814,4.44,2.294Z" transform="translate(-4.5 -1.5)"/>
</svg>
