<svg xmlns="http://www.w3.org/2000/svg" width="11.986" height="13.318" viewBox="0 0 11.986 13.318">
  <path id="Icon_material-perm-contact-calendar" data-name="Icon material-perm-contact-calendar" d="M15.154,2.832h-.666V1.5H13.156V2.832H7.829V1.5H6.5V2.832H5.832A1.331,1.331,0,0,0,4.5,4.164v9.322a1.331,1.331,0,0,0,1.332,1.332h9.322a1.336,1.336,0,0,0,1.332-1.332V4.164A1.336,1.336,0,0,0,15.154,2.832Zm-4.661,2a2,2,0,1,1-2,2A1.995,1.995,0,0,1,10.493,4.829Zm4,7.991H6.5v-.666c0-1.332,2.664-2.064,4-2.064s4,.732,4,2.064Z" transform="translate(-4.5 -1.5)" fill="#222"/>
</svg>
