<svg xmlns="http://www.w3.org/2000/svg" width="19.215" height="19.22" viewBox="0 0 19.215 19.22">
  <path id="Icon_ionic-ios-settings" data-name="Icon ionic-ios-settings" d="M22.129,14.108A2.473,2.473,0,0,1,23.715,11.8a9.8,9.8,0,0,0-1.186-2.857,2.506,2.506,0,0,1-1.006.215,2.467,2.467,0,0,1-2.257-3.473A9.771,9.771,0,0,0,16.414,4.5a2.47,2.47,0,0,1-4.614,0A9.8,9.8,0,0,0,8.943,5.686,2.467,2.467,0,0,1,6.687,9.159a2.424,2.424,0,0,1-1.006-.215A10.018,10.018,0,0,0,4.5,11.806a2.472,2.472,0,0,1,.005,4.614,9.8,9.8,0,0,0,1.186,2.857,2.468,2.468,0,0,1,3.258,3.258,9.858,9.858,0,0,0,2.857,1.186,2.466,2.466,0,0,1,4.6,0,9.8,9.8,0,0,0,2.857-1.186,2.471,2.471,0,0,1,3.258-3.258,9.858,9.858,0,0,0,1.186-2.857A2.484,2.484,0,0,1,22.129,14.108Zm-7.976,4a4,4,0,1,1,4-4A4,4,0,0,1,14.153,18.106Z" transform="translate(-4.5 -4.5)" fill="#242424"/>
</svg>
