<svg xmlns="http://www.w3.org/2000/svg" width="14.723" height="14.723" viewBox="0 0 14.723 14.723">
  <path id="Icon_awesome-globe-africa" data-name="Icon awesome-globe-africa" d="M7.361.563a7.361,7.361,0,1,0,7.361,7.361A7.361,7.361,0,0,0,7.361.563Zm4.749,6.4v.206a.46.46,0,0,1-.254.411L11.4,7.8a.46.46,0,0,1-.461-.029l-.541-.36a.461.461,0,0,0-.4-.054l-.079.026a.46.46,0,0,0-.237.692l.393.59a.46.46,0,0,0,.383.2H10.7a.46.46,0,0,1,.46.46v.337a.461.461,0,0,1-.092.276l-.556.741a.462.462,0,0,0-.084.191l-.128.678a.461.461,0,0,1-.141.254,4.738,4.738,0,0,0-.742.866l-.387.58a.824.824,0,0,1-1.422-.088,2.342,2.342,0,0,1-.247-1.048v-.887a.46.46,0,0,0-.46-.46H6.133A1.621,1.621,0,0,1,4.511,9.152V8.734a1.622,1.622,0,0,1,.649-1.3l.819-.614A1.623,1.623,0,0,1,6.952,6.5h.026A1.618,1.618,0,0,1,7.7,6.67l.437.218a.46.46,0,0,0,.351.025l1.4-.468a.46.46,0,0,0-.145-.9h-.3a.46.46,0,0,1-.325-.135L8.92,5.209a.46.46,0,0,0-.325-.135H5.922a.46.46,0,0,1-.46-.46V4.483a.46.46,0,0,1,.348-.446l.429-.107a.461.461,0,0,0,.271-.191l.24-.359a.46.46,0,0,1,.383-.2h.719a.46.46,0,0,0,.46-.46V2.07A5.945,5.945,0,0,1,13.118,6.5h-.547A.46.46,0,0,0,12.111,6.959Z" transform="translate(0 -0.563)" fill="#fff"/>
</svg>
