<svg xmlns="http://www.w3.org/2000/svg" width="13.213" height="9.148" viewBox="0 0 13.213 9.148">
  <g id="Icon_ionic-ios-mail" data-name="Icon ionic-ios-mail" transform="translate(-3.375 -7.875)">
    <path id="Path_112" data-name="Path 112" d="M16.48,10.333l-3.418,3.481a.061.061,0,0,0,0,.089l2.392,2.547a.412.412,0,0,1,0,.584.414.414,0,0,1-.584,0L12.488,14.5a.065.065,0,0,0-.092,0l-.581.591a2.557,2.557,0,0,1-1.823.769,2.609,2.609,0,0,1-1.861-.791L7.571,14.5a.065.065,0,0,0-.092,0L5.1,17.035a.414.414,0,0,1-.584,0,.412.412,0,0,1,0-.584L6.9,13.9a.068.068,0,0,0,0-.089L3.483,10.333a.063.063,0,0,0-.108.044v6.966A1.019,1.019,0,0,0,4.391,18.36h11.18a1.019,1.019,0,0,0,1.016-1.016V10.378A.064.064,0,0,0,16.48,10.333Z" transform="translate(0 -1.337)" fill="#f4f4f4"/>
    <path id="Path_113" data-name="Path 113" d="M10.448,13.691a1.727,1.727,0,0,0,1.242-.521L16.673,8.1a1,1,0,0,0-.629-.222H4.855a.992.992,0,0,0-.629.222L9.209,13.17A1.727,1.727,0,0,0,10.448,13.691Z" transform="translate(-0.466 0)" fill="#f4f4f4"/>
  </g>
</svg>
