<svg xmlns="http://www.w3.org/2000/svg" width="14.266" height="9.876" viewBox="0 0 14.266 9.876">
  <g id="Icon_ionic-ios-mail" data-name="Icon ionic-ios-mail" transform="translate(-3.375 -7.875)">
    <path id="Path_112" data-name="Path 112" d="M17.524,10.335l-3.69,3.759a.066.066,0,0,0,0,.1l2.582,2.75a.445.445,0,0,1,0,.631.447.447,0,0,1-.631,0l-2.572-2.74a.07.07,0,0,0-.1,0l-.628.638a2.761,2.761,0,0,1-1.968.83,2.817,2.817,0,0,1-2.01-.854l-.6-.614a.07.07,0,0,0-.1,0l-2.572,2.74a.447.447,0,0,1-.631,0,.445.445,0,0,1,0-.631l2.582-2.75a.073.073,0,0,0,0-.1L3.492,10.335a.068.068,0,0,0-.117.048V17.9a1.1,1.1,0,0,0,1.1,1.1H16.544a1.1,1.1,0,0,0,1.1-1.1V10.383A.069.069,0,0,0,17.524,10.335Z" transform="translate(0 -1.249)" fill="#f4f4f4"/>
    <path id="Path_113" data-name="Path 113" d="M10.944,14.154a1.864,1.864,0,0,0,1.341-.562l5.381-5.477a1.078,1.078,0,0,0-.679-.24H4.9a1.071,1.071,0,0,0-.679.24l5.381,5.477A1.865,1.865,0,0,0,10.944,14.154Z" transform="translate(-0.436)" fill="#f4f4f4"/>
  </g>
</svg>
