<svg xmlns="http://www.w3.org/2000/svg" width="14.595" height="13.999" viewBox="0 0 14.595 13.999">
  <path id="Path_126" data-name="Path 126" d="M67.586,37.6l-1.058-8.524a.551.551,0,0,0-.548-.482H63.74v-.754a3.582,3.582,0,0,0-3.266-3.612,3.5,3.5,0,0,0-3.733,3.492v.875H54.6a.55.55,0,0,0-.544.482L53,37.6a.547.547,0,0,0,.544.618h13.5A.547.547,0,0,0,67.586,37.6ZM60.563,36.39V37.2h-.509V36.39a1.772,1.772,0,0,1-1.789-1.583h.785a1.161,1.161,0,0,0,1,.957V33.6c-1.19-.358-1.657-.8-1.657-1.637A1.6,1.6,0,0,1,60.053,30.4V29.8h.509v.614a1.621,1.621,0,0,1,1.625,1.439h-.77a1.019,1.019,0,0,0-.855-.82v1.948c1.365.393,1.758.964,1.758,1.762C62.32,35.729,61.659,36.309,60.563,36.39Zm1.832-7.8h-4.3v-.984a2.214,2.214,0,0,1,1.944-2.236,2.157,2.157,0,0,1,2.36,2.143Zm-1.832,5.164v2.022c.614-.066.945-.377.945-.957C61.508,34.345,61.3,34.014,60.563,33.754Zm-1.388-1.878c0,.439.206.715.879.949V31.009A.835.835,0,0,0,59.175,31.876Z" transform="translate(-52.995 -24.215)" fill="#fff"/>
</svg>
