<svg xmlns="http://www.w3.org/2000/svg" width="14.231" height="14.225" viewBox="0 0 14.231 14.225">
  <g id="c2nUjy.tif" transform="translate(-38.651 -31.233)">
    <g id="Group_254" data-name="Group 254" transform="translate(38.651 31.233)">
      <path id="Path_132" data-name="Path 132" d="M38.651,46.335a4.069,4.069,0,0,1,.27-.674,1.5,1.5,0,0,1,1.318-.743q1.374-.017,2.749,0a1.61,1.61,0,0,1,1.586,1.56c0,.078,0,.158,0,.236a.5.5,0,0,1-.342.567H38.984a.614.614,0,0,1-.333-.333Z" transform="translate(-38.651 -33.054)"/>
      <path id="Path_133" data-name="Path 133" d="M48.566,47.279a.54.54,0,0,1-.346-.567,1.678,1.678,0,0,1,.817-1.58,1.4,1.4,0,0,1,.738-.214c.935-.006,1.871-.011,2.806,0a1.618,1.618,0,0,1,1.567,1.538c0,.083,0,.167,0,.25a.516.516,0,0,1-.335.574Z" transform="translate(-39.925 -33.054)"/>
      <path id="Path_134" data-name="Path 134" d="M46.393,37.7c-.8,0-1.6-.011-2.4,0a.5.5,0,0,1-.563-.57,1.8,1.8,0,0,1,.387-1.214,1.6,1.6,0,0,1,1.266-.586q1.3,0,2.6,0a1.632,1.632,0,0,1,1.688,1.65c0,.088,0,.176,0,.264a.444.444,0,0,1-.473.453h-2.5Z" transform="translate(-39.287 -31.779)"/>
      <path id="Path_135" data-name="Path 135" d="M48.109,32.718a1.48,1.48,0,1,1-1.478-1.485A1.47,1.47,0,0,1,48.109,32.718Z" transform="translate(-39.516 -31.233)"/>
      <path id="Path_136" data-name="Path 136" d="M41.838,43.765a1.476,1.476,0,1,1,1.486-1.475A1.476,1.476,0,0,1,41.838,43.765Z" transform="translate(-38.878 -32.508)"/>
      <path id="Path_137" data-name="Path 137" d="M51.415,40.811a1.477,1.477,0,1,1-1.481,1.467A1.479,1.479,0,0,1,51.415,40.811Z" transform="translate(-40.153 -32.508)"/>
      <path id="Path_138" data-name="Path 138" d="M40.024,38.378a5.887,5.887,0,0,1,2.59-4.659,7.524,7.524,0,0,1,.791-.456.443.443,0,0,1,.628.182.457.457,0,0,1-.223.608,8.624,8.624,0,0,0-1.058.679A4.9,4.9,0,0,0,40.91,38.55a.464.464,0,0,1-.276.471.388.388,0,0,1-.461-.079.7.7,0,0,1-.144-.287A1.088,1.088,0,0,1,40.024,38.378Z" transform="translate(-38.833 -31.495)"/>
      <path id="Path_139" data-name="Path 139" d="M53.066,38.443c0,.065,0,.13,0,.2a.438.438,0,0,1-.393.415.423.423,0,0,1-.476-.35c-.037-.27-.036-.545-.079-.814a4.993,4.993,0,0,0-2.572-3.7c-.1-.059-.215-.107-.318-.169a.434.434,0,0,1-.165-.59.443.443,0,0,1,.585-.185,5.881,5.881,0,0,1,3.332,4.4c.022.114.039.228.05.343C53.046,38.139,53.054,38.292,53.066,38.443Z" transform="translate(-40.03 -31.495)"/>
      <path id="Path_140" data-name="Path 140" d="M46.674,46.147c-.212-.016-.426-.019-.635-.049a.4.4,0,0,1-.34-.323.384.384,0,0,1,.146-.443.688.688,0,0,1,.347-.1c.35-.013.7,0,1.052-.007a.455.455,0,0,1,.5.362.432.432,0,0,1-.272.489.956.956,0,0,1-.272.044c-.175.007-.35,0-.526,0Z" transform="translate(-39.587 -33.096)"/>
    </g>
  </g>
</svg>
