<svg xmlns="http://www.w3.org/2000/svg" width="12.673" height="15.04" viewBox="0 0 12.673 15.04">
  <g id="Group_149" data-name="Group 149" transform="translate(-328.226 -228.49)">
    <path id="Path_75" data-name="Path 75" d="M339.853,234.827a1.631,1.631,0,0,1,1.046-1.522,6.465,6.465,0,0,0-.782-1.884,1.657,1.657,0,0,1-.663.141,1.626,1.626,0,0,1-1.488-2.29,6.449,6.449,0,0,0-1.882-.781,1.629,1.629,0,0,1-3.043,0,6.461,6.461,0,0,0-1.885.782,1.626,1.626,0,0,1-1.488,2.29,1.6,1.6,0,0,1-.663-.141,6.6,6.6,0,0,0-.779,1.887,1.63,1.63,0,0,1,0,3.043,6.446,6.446,0,0,0,.782,1.884q.205-.065.422-.123a10.474,10.474,0,0,1,2.1-.339h.3a4.013,4.013,0,1,1,5.446,0,6.935,6.935,0,0,1,2.827.462c.1-.169.207-.355.306-.558a6.505,6.505,0,0,0,.475-1.326A1.64,1.64,0,0,1,339.853,234.827Z"/>
    <path id="Path_76" data-name="Path 76" d="M374.549,272.036a2.8,2.8,0,1,0-2.8,2.8A2.8,2.8,0,0,0,374.549,272.036Z" transform="translate(-37.19 -37.208)"/>
    <path id="Path_77" data-name="Path 77" d="M340.967,349.327a2.91,2.91,0,0,0-.4-.027h-1.3a4.12,4.12,0,0,1-3.448,0h-1.3a3.025,3.025,0,0,0-3.026,3.026v.378a1.135,1.135,0,0,0,1.135,1.135h9.836a1.135,1.135,0,0,0,1.135-1.135v-.378A3.026,3.026,0,0,0,340.967,349.327Z" transform="translate(-2.977 -110.31)"/>
  </g>
</svg>
