<svg xmlns="http://www.w3.org/2000/svg" width="16.443" height="16.414" viewBox="0 0 16.443 16.414">
  <g id="JC9zYh.tif" transform="translate(-60.181 -30.722)">
    <g id="Group_251" data-name="Group 251" transform="translate(60.181 30.722)">
      <path id="Path_127" data-name="Path 127" d="M76.621,43.262H74.7v3.874H62.121V43.263H60.19a9.885,9.885,0,0,1,.088-2.038A2.352,2.352,0,0,1,62.2,39.448c.029-.006.059-.01.14-.023-.078-.029-.11-.044-.144-.053a1.913,1.913,0,0,1-1.314-2.721,1.75,1.75,0,0,1,1.03-.936.273.273,0,0,0,.214-.314c-.007-1.161,0-2.321,0-3.482V31.68h.233c1.406,0,2.811,0,4.216,0a.307.307,0,0,0,.285-.146,1.892,1.892,0,0,1,3.108,0,.323.323,0,0,0,.3.149c1.393,0,2.786,0,4.179,0h.242c0,.078.013.148.013.217q0,1.778,0,3.556a.21.21,0,0,0,.16.24,1.912,1.912,0,0,1,1.283,1.9,1.932,1.932,0,0,1-1.479,1.771l-.137.035,0,.028c.089.021.179.041.269.063a2.4,2.4,0,0,1,1.833,2.323C76.626,42.285,76.621,42.761,76.621,43.262Zm-7.93-.01c.027.021.035.033.045.034a2.428,2.428,0,0,1,2.083,2.542c0,.114,0,.227,0,.344h2.9V43.257h-1.9c0-.514-.008-1.007,0-1.5a2.391,2.391,0,0,1,1.79-2.26c.1-.026.2-.049.3-.073a.154.154,0,0,0-.088-.048A1.929,1.929,0,0,1,72.3,37.642a1.9,1.9,0,0,1,1.3-1.956.186.186,0,0,0,.139-.215c0-.886,0-1.772,0-2.658,0-.052-.008-.1-.011-.155h-3.37a2.024,2.024,0,0,1-1.676,1.94.74.74,0,0,0,.093.035,2.4,2.4,0,0,1,2.052,2.455c0,.391,0,.782,0,1.173,0,.059-.006.118-.01.183h-4.8c0-.541-.027-1.072.006-1.6A2.379,2.379,0,0,1,67.9,34.66c.075-.017.149-.031.269-.057a2.028,2.028,0,0,1-1.7-1.94H63.1c0,.041-.01.064-.01.088,0,.916,0,1.833,0,2.749,0,.136.076.156.169.193a1.841,1.841,0,0,1,1.254,1.614,1.815,1.815,0,0,1-.918,1.824,4.983,4.983,0,0,1-.684.3c.024.006.049.015.076.019a2.333,2.333,0,0,1,1.985,2.023A15.434,15.434,0,0,1,65,43.224c0,.009-.014.018-.039.047H63.1v2.9H66a2.533,2.533,0,0,1,2.162-2.919,1.934,1.934,0,0,1-1.334-.821,1.865,1.865,0,0,1-.294-1.52,1.925,1.925,0,0,1,3.792.22A1.954,1.954,0,0,1,68.691,43.252Z" transform="translate(-60.181 -30.722)"/>
    </g>
  </g>
</svg>
