<svg xmlns="http://www.w3.org/2000/svg" width="20.337" height="14.236" viewBox="0 0 20.337 14.236">
  <path id="Icon_awesome-users" data-name="Icon awesome-users" d="M3.051,8.351A2.034,2.034,0,1,0,1.017,6.317,2.036,2.036,0,0,0,3.051,8.351Zm14.236,0a2.034,2.034,0,1,0-2.034-2.034A2.036,2.036,0,0,0,17.287,8.351ZM18.3,9.368H16.27a2.028,2.028,0,0,0-1.433.591,4.648,4.648,0,0,1,2.386,3.476h2.1a1.016,1.016,0,0,0,1.017-1.017V11.4A2.036,2.036,0,0,0,18.3,9.368Zm-8.135,0A3.559,3.559,0,1,0,6.61,5.809,3.557,3.557,0,0,0,10.169,9.368Zm2.44,1.017h-.264a4.914,4.914,0,0,1-4.353,0H7.728a3.662,3.662,0,0,0-3.661,3.661v.915a1.526,1.526,0,0,0,1.525,1.525h9.152a1.526,1.526,0,0,0,1.525-1.525v-.915A3.662,3.662,0,0,0,12.609,10.385ZM5.5,9.959a2.028,2.028,0,0,0-1.433-.591H2.034A2.036,2.036,0,0,0,0,11.4v1.017a1.016,1.016,0,0,0,1.017,1.017H3.111A4.66,4.66,0,0,1,5.5,9.959Z" transform="translate(0 -2.25)" fill="#515151"/>
</svg>
