<svg xmlns="http://www.w3.org/2000/svg" width="14.143" height="10.057" viewBox="0 0 14.143 10.057">
  <path id="Path_108" data-name="Path 108" d="M79.61,140.967l-3.027,3.058V142.57a2.139,2.139,0,0,0-2.139-2.139H68.664a2.139,2.139,0,0,0-2.139,2.139v5.779a2.139,2.139,0,0,0,2.139,2.139h5.779a2.139,2.139,0,0,0,2.139-2.139v-1.42l3.022,3.126a.618.618,0,0,0,1.063-.43V141.4A.618.618,0,0,0,79.61,140.967Zm-5.616,7.947a.419.419,0,0,1-.052,0,5.043,5.043,0,0,1-2.417-1,5.958,5.958,0,0,1-1.674-1.948A7.132,7.132,0,0,1,69,143.153a.627.627,0,0,1,.505-.706h.886a.59.59,0,0,1,.557.558,4.751,4.751,0,0,0,.2.913.727.727,0,0,1-.125.684l-.353.412a4.891,4.891,0,0,0,1.674,1.948l.353-.413a.5.5,0,0,1,.591-.146,3.2,3.2,0,0,0,.788.227.626.626,0,0,1,.479.656v.975A.607.607,0,0,1,73.994,148.914Z" transform="translate(-66.525 -140.431)" fill="#fff"/>
</svg>
