<svg xmlns="http://www.w3.org/2000/svg" width="14.46" height="10.283" viewBox="0 0 14.46 10.283">
  <path id="Path_111" data-name="Path 111" d="M79.9,140.979l-3.1,3.126v-1.487a2.187,2.187,0,0,0-2.187-2.187H68.712a2.187,2.187,0,0,0-2.187,2.187v5.909a2.187,2.187,0,0,0,2.187,2.187h5.909a2.187,2.187,0,0,0,2.187-2.187v-1.452l3.09,3.2a.632.632,0,0,0,1.087-.44v-8.408A.632.632,0,0,0,79.9,140.979ZM74.161,149.1a.426.426,0,0,1-.053,0,5.156,5.156,0,0,1-2.471-1.021,6.092,6.092,0,0,1-1.711-1.992,7.292,7.292,0,0,1-.873-2.878.641.641,0,0,1,.516-.722h.906a.6.6,0,0,1,.57.571,4.858,4.858,0,0,0,.2.934.743.743,0,0,1-.128.7l-.361.421a5,5,0,0,0,1.711,1.992l.361-.422a.512.512,0,0,1,.6-.149,3.269,3.269,0,0,0,.805.232.64.64,0,0,1,.49.67v1A.621.621,0,0,1,74.161,149.1Z" transform="translate(-66.525 -140.431)" fill="#fff"/>
</svg>
