<svg xmlns="http://www.w3.org/2000/svg" width="14.504" height="15.319" viewBox="0 0 14.504 15.319">
  <g id="Group_253" data-name="Group 253" transform="translate(-38.18 -34.26)">
    <path id="Path_130" data-name="Path 130" d="M52.441,48.2l-2.728-2.728a6.657,6.657,0,1,0-4.867,2.124,6.5,6.5,0,0,0,3.613-1.077l2.831,2.831a.828.828,0,0,0,1.15,0A.8.8,0,0,0,52.441,48.2ZM47.415,45.22V43.858a2.576,2.576,0,0,0-2.576-2.576h0a2.576,2.576,0,0,0-2.576,2.576v1.349a5.014,5.014,0,1,1,7.6-4.281,4.894,4.894,0,0,1-1.313,3.362A4.564,4.564,0,0,1,47.415,45.22Z" transform="translate(0 0)"/>
    <path id="Path_131" data-name="Path 131" d="M43.2,36.537A1.562,1.562,0,1,0,44.761,38.1,1.563,1.563,0,0,0,43.2,36.537Z" transform="translate(1.64 1.081)"/>
  </g>
</svg>
