<svg xmlns="http://www.w3.org/2000/svg" width="12.519" height="12.52" viewBox="0 0 12.519 12.52">
  <path id="Icon_awesome-tools" data-name="Icon awesome-tools" d="M12.25,9.675,9.387,6.812A1.815,1.815,0,0,0,7.3,6.472L4.692,3.866V2.347L1.563,0,0,1.565l2.347,3.13H3.863L6.47,7.3a1.819,1.819,0,0,0,.34,2.088l2.863,2.863a.909.909,0,0,0,1.289,0l1.289-1.289a.913.913,0,0,0,0-1.289ZM8.108,5.5a2.572,2.572,0,0,1,1.831.758l.474.474a3.461,3.461,0,0,0,1.071-.721,3.516,3.516,0,0,0,.927-3.342.293.293,0,0,0-.491-.134L10.1,4.355,8.44,4.078l-.276-1.66L9.983.6A.3.3,0,0,0,9.844.105a3.522,3.522,0,0,0-3.34.927A3.465,3.465,0,0,0,5.5,3.565L7.5,5.572a2.664,2.664,0,0,1,.6-.071Zm-2.54,2L4.181,6.12.455,9.849a1.565,1.565,0,0,0,2.213,2.213L5.69,9.039a2.626,2.626,0,0,1-.122-1.533Zm-4,4.034a.587.587,0,1,1,.587-.587A.589.589,0,0,1,1.563,11.541Z" transform="translate(0.004)"/>
</svg>
