<svg xmlns="http://www.w3.org/2000/svg" width="12.448" height="15.356" viewBox="0 0 12.448 15.356">
  <g id="video-file" transform="translate(-45.568)">
    <g id="Group_151" data-name="Group 151" transform="translate(45.568)">
      <path id="Path_100" data-name="Path 100" d="M57.64,3.692,54.389.392A1.31,1.31,0,0,0,53.458,0H46.875a1.311,1.311,0,0,0-1.307,1.307V14.049a1.311,1.311,0,0,0,1.307,1.307h9.834a1.311,1.311,0,0,0,1.307-1.307V4.607A1.285,1.285,0,0,0,57.64,3.692ZM54,9.818c-.033.033-.049.065-.082.082l-2.5,2.058a.648.648,0,0,1-.915-.082.64.64,0,0,1-.147-.425V7.335a.655.655,0,0,1,.653-.653.705.705,0,0,1,.425.147l2.483,2.058A.666.666,0,0,1,54,9.818Zm.751-5.9a.655.655,0,0,1-.653-.653V1.013l2.859,2.908H54.749Z" transform="translate(-45.568 0)"/>
    </g>
  </g>
</svg>
