<svg xmlns="http://www.w3.org/2000/svg" width="17.268" height="16.807" viewBox="0 0 17.268 16.807">
  <g id="video-files" transform="translate(0 -0.428)">
    <g id="Group_152" data-name="Group 152" transform="translate(0 0.428)">
      <path id="Path_101" data-name="Path 101" d="M12.4,15.137H11.342L7.705,5.517h3.028a.709.709,0,0,0,0-1.418H7.181l-.63-1.665H12.4v2.62h1.387v-2.8a1.224,1.224,0,0,0-1.214-1.238H6.027L6.008.966A.843.843,0,0,0,5.219.428H1.346A1.334,1.334,0,0,0,0,1.745V15.9a1.346,1.346,0,0,0,1.346,1.332H11.419a.493.493,0,0,0,.395-.222.5.5,0,0,0,.053-.456h.7a1.2,1.2,0,0,0,1.214-1.213V13.965H12.4Z" transform="translate(0 -0.428)"/>
      <path id="Path_102" data-name="Path 102" d="M16.684,10.729c.913,2.19,2.67,6.815,2.731,7h4.414A1.134,1.134,0,0,0,24.963,16.6V11.863a1.133,1.133,0,0,0-1.134-1.134Zm4.4,4.571a.285.285,0,0,1-.44-.238V13.018a.285.285,0,0,1,.44-.238l1.56,1.022a.284.284,0,0,1,0,.475Z" transform="translate(-7.695 -5.179)"/>
    </g>
  </g>
</svg>
